<?xml version="1.0" encoding="UTF-8"?><svg id="Layer_2" xmlns="http://www.w3.org/2000/svg" width="32" height="28" viewBox="0 0 32 28"><g id="Layer_1-2"><path id="alert" d="m31.75,25.22L17.61.92c-.72-1.23-2.51-1.23-3.23,0L.25,25.22c-.72,1.23.18,2.78,1.61,2.78h28.27c1.43,0,2.33-1.54,1.61-2.78Zm-15.75.81c-1.33,0-2.35-1.01-2.35-2.27s1.02-2.33,2.35-2.33,2.35,1.04,2.35,2.33-1.05,2.27-2.35,2.27Zm2.66-17.16l-.96,9.98c-.04.51-.52.73-1.4.73h-.61c-.87,0-1.35-.23-1.4-.73l-.96-9.98v-.63c0-.51.52-.78,1.35-.78h2.62c.83,0,1.35.28,1.35.78v.63Z" stroke-width="0"/></g></svg>