<svg width="20" height="20" viewBox="0 0 20 20" fill="none" xmlns="http://www.w3.org/2000/svg"><path fill-rule="evenodd" clip-rule="evenodd" d="M1.95154 2.84131C1.95154 2.28902 2.39925 1.84131 2.95154 1.84131H17.0484C17.6007 1.84131 18.0484 2.28902 18.0484 2.84131V17.1588C18.0484 17.7111 17.6007 18.1588 17.0484 18.1588H2.95154C2.39925 18.1588 1.95154 17.7111 1.95154 17.1588V2.84131ZM3.5116 8.10129H16.4926V15.3194C16.4926 15.8717 16.0449 16.3194 15.4926 16.3194H4.5116C3.95931 16.3194 3.5116 15.8717 3.5116 15.3194V8.10129ZM4.44415 3.81676C3.89187 3.81676 3.44415 4.26447 3.44415 4.81676V6.35087H16.4316V4.81676C16.4316 4.26447 15.9838 3.81676 15.4316 3.81676H4.44415Z" fill="black"/></svg>
